<?xml version="1.0" encoding="UTF-8" standalone="no"?>
<!-- Created with Inkscape (http://www.inkscape.org/) -->

<svg
   xmlns:osb="http://www.openswatchbook.org/uri/2009/osb"
   xmlns:dc="http://purl.org/dc/elements/1.1/"
   xmlns:cc="http://creativecommons.org/ns#"
   xmlns:rdf="http://www.w3.org/1999/02/22-rdf-syntax-ns#"
   xmlns:svg="http://www.w3.org/2000/svg"
   xmlns="http://www.w3.org/2000/svg"
   xmlns:sodipodi="http://sodipodi.sourceforge.net/DTD/sodipodi-0.dtd"
   xmlns:inkscape="http://www.inkscape.org/namespaces/inkscape"
   width="111.5082mm"
   height="19.950888mm"
   viewBox="0 0 111.5082 19.950887"
   version="1.1"
   id="svg4581"
   inkscape:version="0.92.0 r15299"
   sodipodi:docname="llamafacts-header.svg">
  <defs
     id="defs4575">
    <linearGradient
       inkscape:collect="always"
       id="linearGradient5271"
       osb:paint="gradient">
      <stop
         style="stop-color:#ffdcb7;stop-opacity:1;"
         offset="0"
         id="stop5267" />
      <stop
         style="stop-color:#ffdeb7;stop-opacity:0;"
         offset="1"
         id="stop5269" />
    </linearGradient>
  </defs>
  <sodipodi:namedview
     id="base"
     pagecolor="#000000"
     bordercolor="#666666"
     borderopacity="1.0"
     inkscape:pageopacity="0"
     inkscape:pageshadow="2"
     inkscape:zoom="1.979899"
     inkscape:cx="221.8849"
     inkscape:cy="-48.797829"
     inkscape:document-units="mm"
     inkscape:current-layer="text5128"
     showgrid="false"
     inkscape:pagecheckerboard="true"
     inkscape:snap-global="false"
     fit-margin-top="0"
     fit-margin-left="0"
     fit-margin-right="0"
     fit-margin-bottom="0"
     inkscape:window-width="1920"
     inkscape:window-height="1017"
     inkscape:window-x="1912"
     inkscape:window-y="-8"
     inkscape:window-maximized="1" />
  <metadata
     id="metadata4578">
    <rdf:RDF>
      <cc:Work
         rdf:about="">
        <dc:format>image/svg+xml</dc:format>
        <dc:type
           rdf:resource="http://purl.org/dc/dcmitype/StillImage" />
        <dc:title></dc:title>
      </cc:Work>
    </rdf:RDF>
  </metadata>
  <g
     inkscape:label="Layer 1"
     inkscape:groupmode="layer"
     id="layer1"
     transform="translate(-46.037673,-6.4054052)">
    <g
       aria-label="Llama Facts"
       style="font-style:normal;font-variant:normal;font-weight:normal;font-stretch:normal;font-size:10.58333302px;line-height:6.61458302px;font-family:Lato;-inkscape-font-specification:Lato;letter-spacing:0px;word-spacing:0px;opacity:1;fill:#ffdeb7;fill-opacity:1;stroke:#e6bb88;stroke-width:0.565;stroke-miterlimit:4;stroke-dasharray:none;stroke-opacity:1"
       id="text5128"
       transform="translate(-0.04724702)">
      <path
         id="path4487-1-2"
         d="m 51.047452,10.806602 c 0.84777,-2.5433482 2.825948,-4.2416968 3.370412,-4.2416968 0.423886,0 0.546902,4.3673228 -1.713845,6.0628968 z"
         style="font-style:normal;font-variant:normal;font-weight:normal;font-stretch:normal;font-size:10.58333302px;line-height:6.61458302px;font-family:Lato;-inkscape-font-specification:Lato;letter-spacing:0px;word-spacing:0px;opacity:1;fill:#beaf9b;fill-opacity:1;stroke:#6c5c47;stroke-width:0.31900001;stroke-miterlimit:4;stroke-dasharray:none;stroke-opacity:1"
         inkscape:connector-curvature="0"
         sodipodi:nodetypes="cscc" />
      <path
         id="path4487-1-2-2"
         d="m 49.861437,10.864717 c -0.84777,-2.5433488 -2.825948,-4.2416974 -3.370412,-4.2416974 -0.423886,0 -0.546902,4.3673234 1.713845,6.0628974 z"
         style="font-style:normal;font-variant:normal;font-weight:normal;font-stretch:normal;font-size:10.58333302px;line-height:6.61458302px;font-family:Lato;-inkscape-font-specification:Lato;letter-spacing:0px;word-spacing:0px;opacity:1;fill:#beaf9b;fill-opacity:1;stroke:#6c5c47;stroke-width:0.31900001;stroke-miterlimit:4;stroke-dasharray:none;stroke-opacity:1"
         inkscape:connector-curvature="0"
         sodipodi:nodetypes="cscc" />
      <path
         d="m 58.608582,23.387036 v 2.506133 h -9.561689 v -14.15037 h 3.036711 v 11.644237 z"
         style="font-weight:bold;font-size:22.57777786px;fill:#ffdeb7;fill-opacity:1;stroke:#c8802a;stroke-width:0.565;stroke-miterlimit:4;stroke-dasharray:none;stroke-opacity:1"
         id="path5909"
         inkscape:connector-curvature="0"
         sodipodi:nodetypes="ccccccc" />
      <path
         d="M 63.15871,9.1178805 V 25.893169 H 60.370354 V 9.1178805 Z"
         style="font-weight:bold;font-size:22.57777786px;fill:#ffdeb7;fill-opacity:1;stroke:#c8802a;stroke-width:0.565;stroke-miterlimit:4;stroke-dasharray:none;stroke-opacity:1"
         id="path5911"
         inkscape:connector-curvature="0" />
      <path
         d="m 72.055412,20.948636 q -1.207911,0.05644 -2.032,0.214489 -0.824089,0.146755 -1.3208,0.383822 -0.496711,0.237067 -0.7112,0.553156 -0.214489,0.316089 -0.214489,0.688622 0,0.733778 0.428978,1.049867 0.440266,0.316089 1.140177,0.316089 0.857956,0 1.478845,-0.3048 0.632178,-0.316089 1.230489,-0.948267 z M 65.665901,15.92508 q 1.998133,-1.8288 4.809066,-1.8288 1.016,0 1.817511,0.338667 0.801511,0.327378 1.354667,0.925689 0.553156,0.587022 0.835378,1.411111 0.293511,0.824089 0.293511,1.806222 v 7.3152 h -1.264356 q -0.395111,0 -0.6096,-0.112888 -0.214489,-0.124178 -0.338666,-0.485423 l -0.248356,-0.835377 q -0.440267,0.395111 -0.857955,0.699911 -0.417689,0.293511 -0.869245,0.496711 -0.451555,0.2032 -0.970844,0.3048 -0.508,0.112889 -1.128889,0.112889 -0.733778,0 -1.354667,-0.191911 -0.620889,-0.2032 -1.072444,-0.598312 -0.451556,-0.395111 -0.699911,-0.982133 -0.248356,-0.587022 -0.248356,-1.365955 0,-0.440267 0.146755,-0.869245 0.146756,-0.440267 0.474134,-0.835378 0.338667,-0.395111 0.869244,-0.745066 0.530578,-0.349956 1.298223,-0.6096 0.778933,-0.259645 1.806222,-0.417689 1.027289,-0.169334 2.348089,-0.2032 v -0.677334 q 0,-1.162755 -0.496711,-1.715911 -0.496712,-0.564444 -1.433689,-0.564444 -0.677334,0 -1.128889,0.158044 -0.440267,0.158045 -0.778934,0.361245 -0.338666,0.191911 -0.620888,0.349955 -0.270934,0.158045 -0.6096,0.158045 -0.293512,0 -0.496712,-0.146756 -0.2032,-0.158044 -0.327377,-0.361244 z"
         style="font-weight:bold;font-size:22.57777786px;fill:#ffdeb7;fill-opacity:1;stroke:#c8802a;stroke-width:0.565;stroke-miterlimit:4;stroke-dasharray:none;stroke-opacity:1"
         id="path5913"
         inkscape:connector-curvature="0" />
      <path
         d="m 77.402112,25.893169 v -11.5824 h 1.704623 q 0.541866,0 0.7112,0.508 l 0.180622,0.857956 q 0.3048,-0.338667 0.632178,-0.620889 0.338666,-0.282222 0.7112,-0.485422 0.383822,-0.2032 0.8128,-0.316089 0.440266,-0.124178 0.959555,-0.124178 1.095022,0 1.794934,0.598311 0.7112,0.587022 1.061155,1.569156 0.270933,-0.575734 0.677333,-0.982134 0.4064,-0.417688 0.891823,-0.677333 0.485422,-0.259644 1.027289,-0.383822 0.553155,-0.124178 1.106311,-0.124178 0.959555,0 1.704622,0.293511 0.745067,0.293511 1.253067,0.857956 0.508,0.564444 0.767644,1.377244 0.270933,0.8128 0.270933,1.862667 v 7.371644 h -2.788355 v -7.371644 q 0,-1.106311 -0.485422,-1.659467 -0.485423,-0.564444 -1.4224,-0.564444 -0.428978,0 -0.801511,0.146755 -0.361245,0.146756 -0.643467,0.428978 -0.270934,0.270933 -0.428978,0.688622 -0.158044,0.417689 -0.158044,0.959556 v 7.371644 h -2.799645 v -7.371644 q 0,-1.162756 -0.474133,-1.693333 -0.462845,-0.530578 -1.365956,-0.530578 -0.6096,0 -1.140178,0.3048 -0.519288,0.293511 -0.970844,0.8128 v 8.477955 z"
         style="font-weight:bold;font-size:22.57777786px;fill:#ffdeb7;fill-opacity:1;stroke:#c8802a;stroke-width:0.565;stroke-miterlimit:4;stroke-dasharray:none;stroke-opacity:1"
         id="path5915"
         inkscape:connector-curvature="0" />
      <path
         d="m 102.4384,20.948636 q -1.20791,0.05644 -2.032,0.214489 -0.824089,0.146755 -1.3208,0.383822 -0.496712,0.237067 -0.7112,0.553156 -0.214489,0.316089 -0.214489,0.688622 0,0.733778 0.428977,1.049867 0.440267,0.316089 1.140178,0.316089 0.857954,0 1.478844,-0.3048 0.63218,-0.316089 1.23049,-0.948267 z M 96.048888,15.92508 q 1.998134,-1.8288 4.809072,-1.8288 1.016,0 1.81751,0.338667 0.80151,0.327378 1.35466,0.925689 0.55316,0.587022 0.83538,1.411111 0.29351,0.824089 0.29351,1.806222 v 7.3152 h -1.26435 q -0.39511,0 -0.6096,-0.112888 -0.21449,-0.124178 -0.33867,-0.485423 l -0.24836,-0.835377 q -0.44026,0.395111 -0.85795,0.699911 -0.41769,0.293511 -0.86925,0.496711 -0.45155,0.2032 -0.97084,0.3048 -0.508,0.112889 -1.128889,0.112889 -0.733778,0 -1.354667,-0.191911 -0.620889,-0.2032 -1.072444,-0.598312 -0.451556,-0.395111 -0.699912,-0.982133 -0.248355,-0.587022 -0.248355,-1.365955 0,-0.440267 0.146755,-0.869245 0.146756,-0.440267 0.474134,-0.835378 0.338666,-0.395111 0.869244,-0.745066 0.530578,-0.349956 1.298222,-0.6096 0.778934,-0.259645 1.806222,-0.417689 1.02729,-0.169334 2.34809,-0.2032 v -0.677334 q 0,-1.162755 -0.49671,-1.715911 -0.49671,-0.564444 -1.43369,-0.564444 -0.677334,0 -1.128889,0.158044 -0.440267,0.158045 -0.778934,0.361245 -0.338666,0.191911 -0.620889,0.349955 -0.270933,0.158045 -0.6096,0.158045 -0.293511,0 -0.496711,-0.146756 -0.2032,-0.158044 -0.327377,-0.361244 z"
         style="font-weight:bold;font-size:22.57777786px;fill:#ffdeb7;fill-opacity:1;stroke:#c8802a;stroke-width:0.565;stroke-miterlimit:4;stroke-dasharray:none;stroke-opacity:1"
         id="path5917"
         inkscape:connector-curvature="0" />
      <path
         d="m 110.99513,11.985258 v 4.831645 h 6.11858 v 2.427111 h -6.11858 v 6.649155 h -3.048 V 9.569436 h 10.29547 v 2.415822 z"
         style="fill:#ffffff;fill-opacity:1;stroke:#a2a2a2;stroke-width:0.565;stroke-miterlimit:4;stroke-dasharray:none;stroke-opacity:1"
         id="path5919"
         inkscape:connector-curvature="0" />
      <path
         d="m 124.87023,20.948636 q -1.20791,0.05644 -2.032,0.214489 -0.82409,0.146755 -1.3208,0.383822 -0.49671,0.237067 -0.7112,0.553156 -0.21449,0.316089 -0.21449,0.688622 0,0.733778 0.42898,1.049867 0.44027,0.316089 1.14018,0.316089 0.85796,0 1.47884,-0.3048 0.63218,-0.316089 1.23049,-0.948267 z m -6.38951,-5.023556 q 1.99814,-1.8288 4.80907,-1.8288 1.016,0 1.81751,0.338667 0.80151,0.327378 1.35467,0.925689 0.55315,0.587022 0.83537,1.411111 0.29352,0.824089 0.29352,1.806222 v 7.3152 h -1.26436 q -0.39511,0 -0.6096,-0.112888 -0.21449,-0.124178 -0.33867,-0.485423 l -0.24835,-0.835377 q -0.44027,0.395111 -0.85796,0.699911 -0.41769,0.293511 -0.86924,0.496711 -0.45156,0.2032 -0.97085,0.3048 -0.508,0.112889 -1.12889,0.112889 -0.73377,0 -1.35466,-0.191911 -0.62089,-0.2032 -1.07245,-0.598312 -0.45155,-0.395111 -0.69991,-0.982133 -0.24835,-0.587022 -0.24835,-1.365955 0,-0.440267 0.14675,-0.869245 0.14676,-0.440267 0.47414,-0.835378 0.33866,-0.395111 0.86924,-0.745066 0.53058,-0.349956 1.29822,-0.6096 0.77894,-0.259645 1.80622,-0.417689 1.02729,-0.169334 2.34809,-0.2032 v -0.677334 q 0,-1.162755 -0.49671,-1.715911 -0.49671,-0.564444 -1.43369,-0.564444 -0.67733,0 -1.12889,0.158044 -0.44026,0.158045 -0.77893,0.361245 -0.33867,0.191911 -0.62089,0.349955 -0.27093,0.158045 -0.6096,0.158045 -0.29351,0 -0.49671,-0.146756 -0.2032,-0.158044 -0.32738,-0.361244 z"
         style="fill:#ffffff;fill-opacity:1;stroke:#a2a2a2;stroke-width:0.565;stroke-miterlimit:4;stroke-dasharray:none;stroke-opacity:1"
         id="path5921"
         inkscape:connector-curvature="0" />
      <path
         d="m 138.51427,16.760458 q -0.12418,0.158045 -0.24836,0.248356 -0.11289,0.09031 -0.33866,0.09031 -0.21449,0 -0.41769,-0.124178 -0.2032,-0.135467 -0.48543,-0.293511 -0.28222,-0.169333 -0.67733,-0.293511 -0.38382,-0.135467 -0.95955,-0.135467 -0.73378,0 -1.28694,0.270934 -0.55315,0.259644 -0.92569,0.756355 -0.36124,0.496711 -0.54186,1.207911 -0.18063,0.699911 -0.18063,1.591734 0,0.925688 0.19192,1.648177 0.2032,0.722489 0.57573,1.2192 0.37253,0.485423 0.90311,0.745067 0.53058,0.248356 1.19662,0.248356 0.66605,0 1.07245,-0.158045 0.41769,-0.169333 0.69991,-0.361244 0.28222,-0.2032 0.48542,-0.361245 0.21449,-0.169333 0.47413,-0.169333 0.33867,0 0.508,0.259644 l 0.80151,1.016 q -0.46284,0.541867 -1.00471,0.9144 -0.54186,0.361245 -1.12889,0.587023 -0.57573,0.214489 -1.19662,0.3048 -0.6096,0.09031 -1.2192,0.09031 -1.07244,0 -2.02071,-0.395111 -0.94827,-0.4064 -1.65947,-1.174045 -0.7112,-0.767644 -1.12888,-1.873955 -0.4064,-1.1176 -0.4064,-2.54 0,-1.275645 0.36124,-2.359378 0.37253,-1.095022 1.08373,-1.885245 0.7112,-0.801511 1.76107,-1.253066 1.04987,-0.451556 2.41582,-0.451556 1.29822,0 2.26907,0.417689 0.98213,0.417689 1.76107,1.196622 z"
         style="fill:#ffffff;fill-opacity:1;stroke:#a2a2a2;stroke-width:0.565;stroke-miterlimit:4;stroke-dasharray:none;stroke-opacity:1"
         id="path5923"
         inkscape:connector-curvature="0" />
      <path
         d="m 144.96975,26.073792 q -1.51271,0 -2.32551,-0.846667 -0.80151,-0.857956 -0.80151,-2.359378 v -6.468533 h -1.18534 q -0.22578,0 -0.38382,-0.146756 -0.15804,-0.146755 -0.15804,-0.440266 V 14.70588 l 1.86266,-0.3048 0.58702,-3.160888 q 0.0565,-0.225778 0.21449,-0.349956 0.15805,-0.124178 0.4064,-0.124178 h 1.44498 v 3.646311 h 3.09316 v 1.986845 h -3.09316 v 6.276622 q 0,0.541867 0.25965,0.846667 0.27093,0.3048 0.73377,0.3048 0.25965,0 0.42898,-0.05645 0.18062,-0.06773 0.3048,-0.135466 0.13547,-0.06773 0.23707,-0.124178 0.1016,-0.06773 0.2032,-0.06773 0.12418,0 0.2032,0.06773 0.079,0.05644 0.16933,0.180622 l 0.83538,1.354667 q -0.6096,0.508 -1.39982,0.767644 -0.79023,0.259645 -1.63689,0.259645 z"
         style="fill:#ffffff;fill-opacity:1;stroke:#a2a2a2;stroke-width:0.565;stroke-miterlimit:4;stroke-dasharray:none;stroke-opacity:1"
         id="path5925"
         inkscape:connector-curvature="0" />
      <path
         d="m 156.55426,16.568547 q -0.11289,0.180622 -0.23706,0.259645 -0.12418,0.06773 -0.31609,0.06773 -0.2032,0 -0.44027,-0.112889 -0.22578,-0.112889 -0.53058,-0.248356 -0.3048,-0.146755 -0.69991,-0.259644 -0.38382,-0.112889 -0.9144,-0.112889 -0.82409,0 -1.29822,0.349956 -0.46284,0.349955 -0.46284,0.9144 0,0.372533 0.23706,0.632177 0.24836,0.248356 0.64347,0.440267 0.4064,0.191911 0.9144,0.349956 0.508,0.146755 1.02729,0.327377 0.53058,0.180623 1.03858,0.417689 0.508,0.225778 0.90311,0.587023 0.4064,0.349955 0.64346,0.846666 0.24836,0.496711 0.24836,1.196623 0,0.835377 -0.3048,1.546577 -0.29351,0.699911 -0.88053,1.2192 -0.58703,0.508 -1.45627,0.801511 -0.85796,0.282223 -1.98685,0.282223 -0.59831,0 -1.17404,-0.112889 -0.56444,-0.1016 -1.09502,-0.293511 -0.51929,-0.191911 -0.97085,-0.451556 -0.44026,-0.259644 -0.77893,-0.564444 l 0.64347,-1.061156 q 0.12417,-0.191911 0.29351,-0.293511 0.16933,-0.1016 0.42898,-0.1016 0.25964,0 0.48542,0.146756 0.23706,0.146755 0.54186,0.316088 0.3048,0.169334 0.7112,0.316089 0.41769,0.146756 1.04987,0.146756 0.49671,0 0.84667,-0.112889 0.36124,-0.124178 0.58702,-0.316089 0.23707,-0.191911 0.33867,-0.440267 0.11289,-0.259644 0.11289,-0.530577 0,-0.4064 -0.24836,-0.666045 -0.23707,-0.259644 -0.64347,-0.451555 -0.39511,-0.191912 -0.9144,-0.338667 -0.508,-0.158045 -1.04986,-0.338667 -0.53058,-0.180622 -1.04987,-0.417689 -0.508,-0.248355 -0.9144,-0.620889 -0.39511,-0.372533 -0.64347,-0.9144 -0.23706,-0.541866 -0.23706,-1.309511 0,-0.7112 0.28222,-1.354666 0.28222,-0.643467 0.82409,-1.1176 0.55315,-0.485423 1.36595,-0.767645 0.82409,-0.293511 1.89654,-0.293511 1.19662,0 2.17875,0.395111 0.98214,0.395111 1.63689,1.038578 z"
         style="fill:#ffffff;fill-opacity:1;stroke:#a2a2a2;stroke-width:0.565;stroke-miterlimit:4;stroke-dasharray:none;stroke-opacity:1"
         id="path5927"
         inkscape:connector-curvature="0" />
      <path
         id="path4507"
         d="m 50.387952,14.426279 c 0,0 2.365964,-0.0069 3.943286,-1.191276 -0.218178,-0.577416 -0.521176,-1.184398 -1.104114,-1.382375 l 0.315452,-0.399386 c -0.552066,-0.808388 -1.583873,-0.989868 -1.951918,-0.989868 0,0 0.21688,-0.395935 0.203736,-0.395935 -0.637495,0 -0.972663,0.19798 -1.248706,0.593913 -0.276023,-0.395958 -0.611212,-0.593913 -1.248708,-0.593913 -0.0131,0 0.203738,0.395935 0.203738,0.395935 -0.368025,0 -1.399873,0.181456 -1.951919,0.989868 l 0.315452,0.399386 c -0.582937,0.197977 -0.885934,0.804936 -1.104114,1.382375 0,0 2.050512,0.79532 3.785551,0.79532 z"
         style="fill:#ff9e2b;fill-opacity:1;stroke:#e77d00;stroke-width:0.31900001;stroke-miterlimit:4;stroke-dasharray:none;stroke-opacity:1"
         inkscape:connector-curvature="0"
         inkscape:transform-center-x="0.28705443"
         inkscape:transform-center-y="1.8547392" />
    </g>
  </g>
</svg>
