<?xml version="1.0" encoding="UTF-8" standalone="no"?>
<svg
   xmlns:dc="http://purl.org/dc/elements/1.1/"
   xmlns:cc="http://creativecommons.org/ns#"
   xmlns:rdf="http://www.w3.org/1999/02/22-rdf-syntax-ns#"
   xmlns:svg="http://www.w3.org/2000/svg"
   xmlns="http://www.w3.org/2000/svg"
   xmlns:sodipodi="http://sodipodi.sourceforge.net/DTD/sodipodi-0.dtd"
   xmlns:inkscape="http://www.inkscape.org/namespaces/inkscape"
   width="597.55951pt"
   height="990.28394pt"
   viewBox="0 0 597.55951 990.28394"
   version="1.1"
   id="svg6454"
   sodipodi:docname="llama-silhouette.svg"
   inkscape:version="0.92.0 r15299">
  <metadata
     id="metadata6460">
    <rdf:RDF>
      <cc:Work
         rdf:about="">
        <dc:format>image/svg+xml</dc:format>
        <dc:type
           rdf:resource="http://purl.org/dc/dcmitype/StillImage" />
        <dc:title></dc:title>
      </cc:Work>
    </rdf:RDF>
  </metadata>
  <defs
     id="defs6458" />
  <sodipodi:namedview
     pagecolor="#ffffff"
     bordercolor="#666666"
     borderopacity="1"
     objecttolerance="10"
     gridtolerance="10"
     guidetolerance="10"
     inkscape:pageopacity="0"
     inkscape:pageshadow="2"
     inkscape:window-width="716"
     inkscape:window-height="405"
     id="namedview6456"
     showgrid="false"
     fit-margin-top="0"
     fit-margin-left="0"
     fit-margin-right="0"
     fit-margin-bottom="0"
     inkscape:zoom="0.17559524"
     inkscape:cx="372.37129"
     inkscape:cy="653.40497"
     inkscape:window-x="2495"
     inkscape:window-y="9"
     inkscape:window-maximized="0"
     inkscape:current-layer="svg6454" />
  <g
     id="#ffffffff"
     transform="translate(-107.72153,-3.7698086)">
    <path
       d="m 198.12,670.54 c 3.94,0.76 -2.3,3.42 0,0 z"
       id="path6448"
       inkscape:connector-curvature="0"
       style="opacity:1;fill:#ffffff" />
  </g>
  <g
     id="#000000ff"
     transform="translate(-107.72153,-3.7698086)">
    <path
       d="m 252.47,5.24 c 5.5,-1.12 12.5,-3.26 16.82,1.44 4.14,2.89 6.7,7.28 8.95,11.66 6.09,7.92 10.72,16.79 16.53,24.9 7.82,10.3 9.48,23.5 13.16,35.54 2.59,9.22 0.37,18.9 2.29,28.19 2.04,11.11 4.92,22.05 8.12,32.87 1.64,5.72 -0.03,11.9 2.03,17.55 5.25,16.28 9.57,33.27 8.03,50.52 0.01,5.14 -1.69,10.5 0,15.53 2.42,7.29 4.2,14.87 4.34,22.59 1,24.98 -0.5,49.99 0.5,74.97 -0.55,5.02 3.02,8.7 4.66,13.06 1.76,4.26 1.5,8.97 1.6,13.51 19.24,9.15 40.85,7.41 61.51,7.55 10.93,-0.28 21.3,3.59 32.04,4.87 6.71,0.97 13.19,3.27 20,3.63 25.09,2.22 50.23,3.94 75.4,4.78 13.53,0.98 27.07,-0.93 40.58,0.64 4.61,-0.95 7.79,2.46 11.64,3.97 8.21,1.25 16.67,0.48 24.79,2.53 5.07,1.14 9.77,3.48 14.74,4.98 5.95,1.68 12.66,1.64 17.95,5.21 6.78,3.81 14.21,6.79 20.05,12.05 8.49,11.27 12.68,24.89 18.33,37.64 4.12,8.58 4.18,18.41 7.53,27.25 2.43,6.89 1.32,14.67 3.89,21.44 6.01,5.35 10.14,12.86 11.01,20.93 -0.41,7.14 6.6,11.8 5.83,18.97 -0.13,24.27 2.97,49.5 -4.95,72.96 -2.89,11.42 -0.93,23.56 -4.06,34.97 -1.21,4.5 -2,9.13 -3.6,13.52 -3.12,5.65 -9.47,9.07 -11.46,15.43 -2.69,6.37 -2.2,13.45 -3.74,20.11 -1.89,7.52 -4.06,15.13 -8.13,21.81 -5.73,8.65 -6.98,19.32 -8.77,29.29 -0.13,2.62 -1.77,4.67 -3.72,6.26 -5.94,4.31 -6.3,12.23 -10.14,18.04 -1.64,3.07 -3.7,6.02 -3.87,9.67 -0.53,18.46 1.39,36.89 1.46,55.36 -0.65,9.19 -1.7,18.34 -1.73,27.58 1.01,8.51 -4.27,15.73 -5.52,23.87 -2.09,6.42 -1.51,13.69 -5.27,19.5 -4.07,6.05 -6.01,13.29 -7.04,20.44 -1.3,7.79 -4.47,15.17 -8.76,21.77 -2.98,4.64 -9.33,4.4 -14.03,6.24 6.38,7.45 12.63,16.19 10.87,26.7 -2.01,5.96 -4.61,11.73 -7.53,17.31 -18.71,0.99 -37.79,2.9 -56.3,-0.87 -8.02,-0.9 -16.09,-0.83 -24.1,-1.61 -8.47,-3.23 -13.38,-14.49 -8.5,-22.5 4.21,-3.81 9.31,-6.57 14.71,-8.29 7.25,-2.36 11.26,-9.47 16.61,-14.35 2.98,-3.43 6.75,-5.96 10.2,-8.85 5.24,-5.36 9.6,-11.58 15.17,-16.6 6.49,-4.37 13.64,-8.66 16.98,-16.13 6.63,-15.98 7.8,-33.46 9.81,-50.45 0.5,-11.38 2.61,-23.75 -3.19,-34.16 -7.45,-15.78 -22.83,-26.19 -30.01,-42.16 -2.52,-5.81 -6.14,-11.03 -9.88,-16.1 -3.51,-4.84 -5.72,-11.28 -11.73,-13.61 2.36,10.29 10.77,17.71 14.89,27.25 3.09,13.6 -2.14,26.88 -8.51,38.58 -9.16,10.74 -13.21,24.45 -20.51,36.3 -0.23,-1.41 -0.71,-4.21 -0.94,-5.62 0.84,15.93 -6.45,30.62 -7.03,46.39 -0.49,4.24 -0.2,8.98 -2.69,12.73 -4.59,3.83 -10.5,5.36 -15.68,8.19 -4.43,2.52 -9.85,2.83 -13.83,6.23 -2.81,2.52 -4.62,5.88 -6.81,8.91 -0.33,-1.12 -0.66,-2.24 -0.99,-3.34 -0.14,5.76 -0.57,11.52 -0.8,17.3 1.18,1.43 2.49,2.81 3.29,4.52 -5.04,3.08 -10.14,6 -14.39,10.17 -22.42,-1.92 -45.32,1.45 -67.49,-3.18 -2.95,-0.94 -7.15,-1.93 -7.77,-5.48 -0.43,-6.05 -1.85,-13.17 2.74,-17.95 4.23,-6.06 12.55,-7.12 16.94,-13.09 5.5,-7.73 12.22,-14.69 20.24,-19.84 11.27,-5.19 24.95,-5.05 34.98,-13.01 7.17,-5.24 13.07,-12.09 17.32,-19.88 4.22,-5.54 2.57,-12.99 3.64,-19.39 0.34,-6.59 8.75,-9.87 7.58,-16.97 0.63,-15.01 0.42,-30.03 0.29,-45.03 0.08,-2.93 -1.08,-5.78 -3.14,-7.83 -7.17,-7.18 -13.46,-15.19 -20.92,-22.07 -7.02,-5.45 -11.46,-13.24 -17.11,-19.92 -6.23,-6.94 -1.32,-17.82 -7.1,-24.98 -11.89,-4.74 -24.52,0.07 -36.72,-0.29 -7.18,-1.71 -12.92,-6.52 -19.55,-9.47 -1.88,3.11 -3.52,6.44 -6.09,9.06 -3.4,3.32 -8.89,2.01 -13.06,3.35 -0.23,22.04 0.19,44.22 -4.43,65.91 0.08,7.51 -4.52,13.47 -7.35,20.04 -7.2,15.97 0.7,33.55 -1.61,50.26 -2.08,21.6 -2.43,43.28 -1.83,65 1.69,11.75 -4.65,22.15 -6.06,33.5 -4.54,7.17 -8.51,14.95 -14.58,21.03 -1.55,1.64 -3.83,2.15 -5.82,3.05 -0.71,8.94 -3.5,17.48 -5,26.29 -0.85,5.24 -7.02,6.96 -11.42,7.7 -20.59,1.21 -41.21,-0.35 -61.81,0.23 -2.12,-3.68 -5.35,-7.2 -5.32,-11.67 0.67,-11.38 10.37,-18.86 16.62,-27.45 1.96,-2.96 5.82,-3.36 8.28,-5.63 7.42,-14.04 14.88,-28.14 23.86,-41.26 7.37,-7.49 17.63,-14.84 16.07,-26.76 -0.04,-25.15 0.27,-50.28 0.79,-75.42 -2.42,-2.95 -5.69,-5.44 -6.98,-9.15 -1.78,-10.73 -1.24,-21.65 -2.07,-32.44 -4.08,-17.29 -12.17,-33.68 -13.29,-51.61 -1.37,-0.2 -2.74,-0.39 -4.1,-0.57 0.59,4.31 1.31,8.75 0.4,13.08 -2.47,11.52 -1.36,23.36 -1.96,35.04 -1.1,10.08 -4.57,19.8 -4.76,30 -0.59,8.66 0.69,17.28 1.47,25.89 -1.04,11.89 -3.75,23.69 -8.15,34.8 -3.49,17.68 0.61,35.98 -2.15,53.78 -2.33,4.75 -5.08,9.32 -6.89,14.33 -5.65,1.2 -11.81,1.22 -16.59,4.89 -6.93,9.68 -5.98,23.68 -15.14,31.88 -4.48,4.41 -11.64,2.21 -16.77,5.34 -3.56,2.18 -7.31,4.52 -11.77,3.95 -17.95,0.49 -35.96,0.52 -53.9,-0.45 0.87,-1.12 1.73,-2.23 2.58,-3.34 -3.25,-2.71 -6.71,-6.22 -5.57,-10.95 2.06,-7.11 9.49,-9.98 14.93,-14.05 4.36,-3.32 10.3,-4.84 13.21,-9.8 5.21,-8.65 12.96,-15.43 17.76,-24.34 5.95,-10.65 15.82,-18.13 23.66,-27.24 2.69,-4.45 3.36,-9.84 5.02,-14.7 0.21,1.05 0.43,2.11 0.66,3.18 0.29,-8.63 3.55,-16.76 7.49,-24.31 4.85,-9.82 5.07,-21.13 5.19,-31.82 0.04,-13.34 0.38,-26.69 -0.21,-40.01 0.64,-5.25 -3.06,-9.18 -5.33,-13.44 -2.98,-4.68 -3.53,-10.35 -5.78,-15.34 -3.64,-8.43 -9.59,-15.74 -12.32,-24.58 -2.51,-8.37 -4.18,-16.98 -6.82,-25.31 -3.17,-8.29 -12.19,-13.51 -13.16,-22.81 -3.29,-11.55 -14.93,-16.78 -23.71,-23.51 -0.11,-3.77 0.37,-7.78 -1.59,-11.17 -6.79,-11.91 -15.85,-23.03 -18.17,-36.91 -1.64,-6.95 -6.85,-12.35 -8.71,-19.21 -5.42,-18 -3.13,-37.13 -2.04,-55.58 0.58,-14.79 3.76,-29.29 4.16,-44.09 1.22,-17.96 0.07,-36 1.35,-53.95 -4.38,-4.32 -9.81,-7.11 -15.35,-9.6 -4.22,-1.69 -1.39,-7.15 -0.83,-10.06 1.71,-5.98 6.5,-10.93 6.09,-17.48 0.46,-7.31 1.85,-14.63 5.39,-21.1 7.5,-20.67 2.75,-43.19 7.42,-64.38 3.14,-8.94 7.65,-17.36 10.59,-26.39 3.36,-11.99 9.62,-22.87 13.67,-34.6 2.55,-8.33 6.78,-15.94 10.05,-23.96 2.12,-9.86 8.34,-18.08 12.75,-26.98 1.83,-4.52 1.97,-9.7 1.44,-14.48 -6.91,-12.5 -19.73,-20.51 -32.91,-25.23 -5.65,-2.76 -12.11,-0.31 -18.06,-1.63 -7.86,0 -15.26,-3.35 -21.73,-7.52 -4.2,-4.03 -8.36,-8.35 -11.1,-13.51 -0.94,-6.65 0.63,-13.83 -2.26,-20.1 -2.68,-5.96 -3.57,-12.6 -2.93,-19.1 0.09,-1.84 1.69,-2.97 2.89,-4.14 4.14,-3.51 7.68,-7.75 12.42,-10.5 12.57,-0.94 25.35,-0.92 37.8,1.27 12.32,0.36 24.63,-1.07 36.35,-4.93 14.49,-0.22 29.04,0.3 43.52,-0.9 -0.83,-4.92 -1.67,-10.47 -5.79,-13.86 -3.39,-3.91 -8.19,-6.8 -10.43,-11.61 -1.81,-7.16 1.09,-14.26 2.72,-21.13 5.24,-0.12 10.48,-0.22 15.73,-0.34 0.75,-5.41 2.54,-13.14 9.34,-13.6 m -54.35,665.3 c -2.3,3.42 3.94,0.76 0,0 z"
       id="path6451"
       inkscape:connector-curvature="0"
       style="opacity:1;fill:#000000" />
  </g>
</svg>
